<?xml version="1.0" standalone="no"?>
<!DOCTYPE svg PUBLIC "-//W3C//DTD SVG 20010904//EN"
 "http://www.w3.org/TR/2001/REC-SVG-20010904/DTD/svg10.dtd">
<svg version="1.0" xmlns="http://www.w3.org/2000/svg"
 width="256.000000pt" height="256.000000pt" viewBox="0 0 256.000000 256.000000"
 preserveAspectRatio="xMidYMid meet">
<metadata>
Created by potrace 1.14, written by Peter Selinger 2001-2017
</metadata>
<g transform="translate(0.000000,256.000000) scale(0.100000,-0.100000)"
fill="#000000" stroke="none">
<path d="M0 2120 c0 -433 0 -440 20 -440 16 0 20 7 20 35 l0 35 105 0 105 0 0
35 0 35 105 0 105 0 0 35 0 35 70 0 70 0 0 35 0 35 140 0 140 0 0 35 0 35 315
0 315 0 0 -35 c0 -33 2 -35 35 -35 33 0 35 -2 35 -35 l0 -35 210 0 210 0 0
-35 0 -35 175 0 175 0 0 -35 0 -35 105 0 105 0 0 405 0 405 -1280 0 -1280 0 0
-440z m930 290 l0 -120 100 0 100 0 0 45 c0 41 2 45 25 45 24 0 25 2 25 75 0
73 1 75 25 75 24 0 25 -2 25 -75 0 -73 1 -75 25 -75 23 0 25 -4 25 -45 l0 -45
65 0 65 0 0 30 c0 27 3 30 30 30 l30 0 0 60 0 60 30 0 30 0 0 -90 0 -90 75 0
75 0 0 45 c0 41 2 45 25 45 20 0 25 5 25 25 0 20 5 25 25 25 20 0 25 5 25 25
0 23 3 25 50 25 47 0 50 -2 50 -25 0 -20 -5 -25 -25 -25 -20 0 -25 -5 -25 -25
0 -20 -5 -25 -25 -25 -24 0 -25 -2 -25 -70 l0 -70 110 0 110 0 0 -35 0 -35 53
0 c28 0 69 3 90 6 31 6 37 11 37 30 0 19 5 24 25 24 20 0 25 5 25 25 0 23 3
25 50 25 l50 0 0 -50 c0 -47 -2 -50 -25 -50 -20 0 -25 -5 -25 -25 0 -20 -5
-25 -25 -25 -23 0 -25 -3 -25 -50 l0 -50 130 0 130 0 0 -35 0 -35 -175 0 -175
0 0 35 c0 33 -2 35 -35 35 -33 0 -35 2 -35 35 l0 35 -70 0 -70 0 0 35 0 35
-680 0 -680 0 0 -29 c0 -24 -5 -30 -30 -34 -24 -5 -30 -12 -30 -32 0 -20 -5
-25 -25 -25 -14 0 -25 -4 -25 -10 0 -5 -16 -10 -35 -10 -28 0 -35 -4 -35 -20
0 -16 -7 -20 -35 -20 -24 0 -35 -5 -35 -15 0 -12 -18 -15 -105 -15 l-105 0 0
35 0 35 50 0 c28 0 50 5 50 10 0 6 9 10 20 10 14 0 20 7 20 24 0 22 5 24 70
30 69 7 70 8 70 37 0 27 3 29 35 29 33 0 35 2 35 35 l0 35 60 0 c53 0 60 2 60
20 0 15 -7 20 -25 20 -20 0 -25 5 -25 25 0 20 -5 25 -25 25 -20 0 -25 5 -25
25 0 20 -5 25 -25 25 -23 0 -25 3 -25 50 0 47 2 50 25 50 20 0 25 -5 25 -25 0
-23 3 -25 50 -25 47 0 50 -2 50 -25 0 -20 5 -25 25 -25 20 0 25 -5 25 -25 0
-20 5 -25 25 -25 19 0 25 -5 25 -22 0 -22 3 -23 65 -20 l65 4 0 44 c0 44 0 44
-35 44 -33 0 -35 2 -35 35 0 33 2 35 35 35 28 0 35 -4 35 -20 0 -16 7 -20 30
-20 l30 0 0 60 0 60 30 0 30 0 0 -120z"/>
<path d="M670 1785 l0 -35 -70 0 -70 0 0 -35 0 -35 -140 0 -140 0 0 -35 0 -35
-70 0 -70 0 0 -35 0 -35 -55 0 -55 0 0 -350 0 -350 195 0 195 0 0 -35 0 -35
105 0 105 0 0 -35 0 -35 105 0 105 0 0 -35 0 -35 60 0 c57 0 60 1 60 25 0 20
-5 25 -25 25 -23 0 -25 3 -25 50 0 47 -2 50 -25 50 -23 0 -25 3 -25 50 0 47
-2 50 -25 50 l-25 0 0 325 c0 282 2 325 15 325 11 0 15 11 15 40 0 22 5 40 10
40 6 0 10 16 10 35 0 31 3 35 25 35 23 0 25 3 25 50 0 47 2 50 25 50 18 0 25
5 25 20 0 19 -7 20 -130 20 l-130 0 0 -35z"/>
<path d="M1026 1789 c-3 -17 -6 -49 -6 -70 0 -38 -1 -39 -35 -39 l-35 0 0 -70
0 -70 -35 0 -35 0 0 -280 0 -280 35 0 35 0 0 -100 0 -99 35 -7 35 -6 0 -69 0
-69 35 0 c33 0 35 -2 35 -35 l0 -35 280 0 280 0 0 70 0 70 35 0 35 0 0 315 0
315 -35 0 -35 0 0 175 0 175 -35 0 -35 0 0 70 0 70 -274 0 -273 0 -7 -31z"/>
<path d="M1720 1728 c0 -13 3 -40 6 -60 6 -32 11 -38 30 -38 24 0 24 -1 24
-109 0 -123 4 -141 31 -141 18 0 19 -12 19 -275 0 -268 0 -275 -20 -275 -19 0
-20 -7 -20 -100 l0 -100 105 0 105 0 0 35 0 35 245 0 245 0 0 35 c0 33 2 35
35 35 l35 0 0 385 0 385 -35 0 c-33 0 -35 2 -35 35 l0 35 -105 0 -105 0 0 35
0 35 -140 0 -140 0 0 35 0 35 -140 0 c-139 0 -140 0 -140 -22z"/>
<path d="M0 350 l0 -350 1280 0 1280 0 0 280 0 280 -210 0 -210 0 0 -35 0 -35
-210 0 -210 0 0 -35 0 -35 -385 0 -385 0 0 35 0 35 -140 0 -140 0 0 35 c0 33
-2 35 -35 35 -19 0 -35 5 -35 10 0 6 -27 10 -60 10 -57 0 -60 1 -60 25 0 24
-2 25 -75 25 -67 0 -75 2 -75 19 0 50 -2 51 -171 51 l-159 0 0 -350z"/>
</g>
</svg>
